# xmcd
#
# Track frame offsets: 
#        150
#        38100
#        73902
#        112590
#        162919
#        195399
#        231250
#        281620
#
# Disc length: 4181 seconds
#
# Revision: 0
# Processed by: cddbd v1.5.2PL0 Copyright (c) Steve Scherf et al.
# Submitted via: ExactAudioCopy v1.3
#
DISCID=66105308
DTITLE=Décembre Noir - Autumn Kings
DYEAR=2018
DGENRE=Melodic Doom Death Metal
TTITLE0=In The Pouring Rain
TTITLE1=Autumn King
TTITLE2=Barricades
TTITLE3=A Weeping Sunrise
TTITLE4=Between Silence And Shards
TTITLE5=Dress.Code.Black
TTITLE6=Hymn Of Sorrow
TTITLE7=The Downward Path
EXTD=
EXTT0=
EXTT1=
EXTT2=
EXTT3=
EXTT4=
EXTT5=
EXTT6=
EXTT7=
PLAYORDER=
